<?xml version="1.0" encoding="UTF-8" standalone="no"?>
<svg
   xmlns:dc="http://purl.org/dc/elements/1.1/"
   xmlns:cc="http://creativecommons.org/ns#"
   xmlns:rdf="http://www.w3.org/1999/02/22-rdf-syntax-ns#"
   xmlns:svg="http://www.w3.org/2000/svg"
   xmlns="http://www.w3.org/2000/svg"
   id="svg50"
   version="1.2"
   viewBox="0 0 180.34808 155.90235"
   height="155.90234pt"
   width="180.34808pt">
  <metadata
     id="metadata54">
    <rdf:RDF>
      <cc:Work
         rdf:about="">
        <dc:format>image/svg+xml</dc:format>
        <dc:type
           rdf:resource="http://purl.org/dc/dcmitype/StillImage" />
        <dc:title></dc:title>
      </cc:Work>
    </rdf:RDF>
  </metadata>
  <defs
     id="defs5">
    <clipPath
       id="clip1">
      <path
         id="path2"
         d="M 0,0 H 226.76953 V 155.89844 H 0 Z m 0,0" />
    </clipPath>
  </defs>
  <path
     id="path7"
     d="M 180.34808,155.90235 H 0 V 0 h 180.34808 v 155.90235"
     style="clip-rule:nonzero;fill:#ffffff;fill-opacity:1;fill-rule:nonzero;stroke:none;stroke-width:0.89178401" />
  <path
     style="fill:#211e1e;fill-opacity:1;fill-rule:nonzero;stroke:none"
     d="m 139.80859,87.015625 v -4.617188 c 0,-0.609375 -0.10547,-1.042969 -0.30468,-1.308593 -0.20313,-0.261719 -0.51172,-0.394532 -0.9336,-0.394532 -0.35547,0 -0.65234,0.08984 -0.89062,0.269532 -0.23828,0.179687 -0.42578,0.351562 -0.56641,0.523437 v 5.527344 h -1.20312 v -10.5625 l 1.20312,-0.136719 v 4.257812 h 0.0312 c 0.0391,-0.05859 0.10156,-0.140624 0.1875,-0.238281 0.082,-0.09766 0.20313,-0.199219 0.34766,-0.296875 0.15234,-0.101562 0.33203,-0.1875 0.54297,-0.261718 0.21484,-0.07813 0.46484,-0.113282 0.7539,-0.113282 0.625,0 1.1211,0.203125 1.48438,0.613282 0.36718,0.40625 0.55078,1.085937 0.55078,2.03125 v 4.707031 z m -5.66797,-5.78125 c -0.0312,-0.03125 -0.0781,-0.07813 -0.14453,-0.136719 -0.0664,-0.05859 -0.14453,-0.121094 -0.24218,-0.179688 -0.0977,-0.05859 -0.21875,-0.109374 -0.35938,-0.15625 -0.13672,-0.04687 -0.29687,-0.06641 -0.47656,-0.06641 -0.25781,0 -0.4961,0.04687 -0.72266,0.140625 -0.22265,0.09375 -0.41406,0.246094 -0.57812,0.457031 -0.16407,0.210938 -0.29297,0.480469 -0.39063,0.8125 -0.0898,0.335938 -0.13672,0.742188 -0.13672,1.21875 0,0.527344 0.043,0.972657 0.125,1.332032 0.0859,0.355468 0.20313,0.640625 0.35157,0.855468 0.14453,0.214844 0.32812,0.371094 0.54296,0.464844 0.21094,0.09375 0.44922,0.140625 0.70313,0.140625 0.37109,0 0.64844,-0.0625 0.84375,-0.195312 0.19141,-0.128907 0.32812,-0.230469 0.40625,-0.3125 l 0.49219,0.835937 c -0.0508,0.0625 -0.1211,0.132813 -0.21485,0.21875 -0.0977,0.08594 -0.21875,0.167969 -0.36328,0.246094 -0.14844,0.07813 -0.33203,0.148438 -0.54297,0.203125 -0.21484,0.05469 -0.46093,0.08203 -0.73828,0.08203 -0.39844,0 -0.76953,-0.06641 -1.11328,-0.195312 -0.35156,-0.128906 -0.65234,-0.34375 -0.91016,-0.640625 -0.25781,-0.300781 -0.46093,-0.6875 -0.60937,-1.167969 -0.15234,-0.476562 -0.22266,-1.070312 -0.22266,-1.777344 0,-0.6875 0.0859,-1.269531 0.26563,-1.746094 0.17969,-0.480468 0.41406,-0.867187 0.70312,-1.160156 0.28516,-0.292968 0.60547,-0.507812 0.95703,-0.644531 0.35157,-0.132813 0.70704,-0.199219 1.0625,-0.199219 0.26954,0 0.50391,0.02344 0.70704,0.07422 0.20312,0.05078 0.375,0.113281 0.52343,0.1875 0.14063,0.07422 0.26172,0.152344 0.35547,0.238281 0.0937,0.08594 0.17188,0.15625 0.23047,0.214844 z m -4.98828,-0.332031 c -0.0273,-0.01953 -0.0937,-0.04297 -0.1914,-0.07422 -0.0977,-0.02734 -0.23438,-0.04297 -0.40235,-0.04297 -0.3789,0 -0.67187,0.101562 -0.88671,0.304688 -0.21094,0.203124 -0.36329,0.425781 -0.45313,0.664062 v 5.261719 h -1.20312 v -7.171875 h 1.10156 v 0.972658 h 0.0273 c 0.0508,-0.140625 0.11719,-0.277344 0.19531,-0.414062 0.0781,-0.132813 0.17579,-0.253907 0.29688,-0.359376 0.12109,-0.101562 0.26172,-0.183593 0.42187,-0.246093 0.16407,-0.05859 0.36328,-0.08984 0.58985,-0.08984 0.16797,0 0.30468,0.01563 0.41015,0.04687 0.10547,0.03125 0.1836,0.05469 0.24219,0.07422 z m -7.33203,5.257812 c 0.16797,0 0.31641,-0.02344 0.44922,-0.07031 0.125,-0.05078 0.23438,-0.109376 0.33203,-0.179688 0.0937,-0.07031 0.17188,-0.148438 0.23438,-0.234375 0.0664,-0.08203 0.125,-0.15625 0.17187,-0.214844 v -1.582033 l -0.38672,0.01172 c -0.57421,0.02344 -1.01171,0.121093 -1.30468,0.300781 -0.30078,0.179688 -0.44922,0.46875 -0.44922,0.867188 0,0.367187 0.082,0.644531 0.25,0.828124 0.17187,0.183594 0.40625,0.273438 0.70312,0.273437 z m -2.16015,-0.96875 c 0,-0.417969 0.082,-0.765625 0.23828,-1.042969 0.16015,-0.28125 0.375,-0.507812 0.64062,-0.679687 0.26563,-0.175782 0.58203,-0.300782 0.94532,-0.375 0.36328,-0.07422 0.74609,-0.113282 1.15234,-0.113282 h 0.37109 v -0.6875 c 0,-0.605468 -0.10547,-1.027343 -0.32031,-1.253906 -0.21094,-0.230468 -0.51172,-0.34375 -0.89453,-0.34375 -0.36328,0 -0.66016,0.07813 -0.89844,0.230469 -0.23437,0.15625 -0.42578,0.292969 -0.5664,0.410156 l -0.50391,-0.804687 c 0.082,-0.08203 0.17969,-0.171875 0.30469,-0.269532 0.125,-0.101562 0.27734,-0.195312 0.45312,-0.285156 0.17969,-0.08594 0.38281,-0.164062 0.61328,-0.222656 0.22657,-0.05859 0.48438,-0.08984 0.77344,-0.08984 0.73438,0 1.28906,0.203125 1.66797,0.613282 0.375,0.40625 0.5625,1.066406 0.5625,1.972656 v 3.269531 c 0,0.308594 0.0117,0.609375 0.0312,0.90625 0.0195,0.292969 0.0391,0.488281 0.0586,0.589844 h -1.14453 l -0.0469,-0.792969 h -0.0273 c -0.043,0.08984 -0.10156,0.191406 -0.17968,0.308594 -0.082,0.113281 -0.17969,0.21875 -0.29688,0.3125 -0.12109,0.09375 -0.26172,0.175781 -0.43359,0.246094 -0.16797,0.07031 -0.36328,0.105468 -0.59375,0.105468 -0.26953,0 -0.51953,-0.05078 -0.75391,-0.152344 -0.23047,-0.09766 -0.43359,-0.238281 -0.60547,-0.417968 -0.17578,-0.179688 -0.30859,-0.390625 -0.40625,-0.632813 -0.0898,-0.246093 -0.14062,-0.511719 -0.14062,-0.800781 z m -3.44922,-4.539062 c -0.42969,0 -0.76953,0.175781 -1.03125,0.535156 -0.25391,0.359375 -0.40235,0.875 -0.44141,1.554687 h 2.60156 c 0.0117,-0.05078 0.0195,-0.121093 0.0234,-0.21875 0.004,-0.09375 0.008,-0.195312 0.008,-0.304687 0,-0.5 -0.10156,-0.882813 -0.30078,-1.15625 -0.19531,-0.273438 -0.48437,-0.410156 -0.85937,-0.410156 z m 2.26172,1.609374 c 0,0.3125 -0.0117,0.578126 -0.0312,0.800782 -0.0195,0.222656 -0.0391,0.421875 -0.0586,0.589844 h -3.64453 c 0.0391,0.847656 0.21875,1.472656 0.53906,1.867187 0.32422,0.398437 0.78907,0.597656 1.39454,0.597656 0.20703,0 0.39453,-0.02344 0.5664,-0.07422 0.16406,-0.04687 0.3125,-0.109374 0.4375,-0.179687 0.125,-0.07031 0.22656,-0.136719 0.3125,-0.207031 0.082,-0.07031 0.14453,-0.125 0.1836,-0.164063 l 0.44921,0.851563 c -0.0508,0.04687 -0.125,0.121094 -0.22656,0.214844 -0.0937,0.09375 -0.23047,0.191406 -0.39844,0.285156 -0.16796,0.09375 -0.3789,0.175781 -0.625,0.246094 -0.25,0.07031 -0.53906,0.105468 -0.8789,0.105468 -0.44531,0 -0.85156,-0.07422 -1.21485,-0.226562 -0.35937,-0.144532 -0.66796,-0.378906 -0.92187,-0.691406 -0.25,-0.316407 -0.44922,-0.714844 -0.58594,-1.195313 -0.13672,-0.484375 -0.21094,-1.066406 -0.21094,-1.742187 0,-0.640626 0.0742,-1.1875 0.21875,-1.652344 0.14063,-0.460938 0.33985,-0.84375 0.58594,-1.140625 0.25,-0.300781 0.53516,-0.523438 0.86328,-0.667969 0.32813,-0.144531 0.67969,-0.214844 1.05469,-0.214844 0.6875,0 1.22266,0.214844 1.60938,0.648438 0.38671,0.4375 0.58203,1.085937 0.58203,1.949218 z m -6.71094,-0.96875 c -0.082,-0.08984 -0.22266,-0.210937 -0.43359,-0.367187 -0.20704,-0.152344 -0.48047,-0.230469 -0.82032,-0.230469 -0.3164,0 -0.55859,0.07422 -0.72656,0.222656 -0.16797,0.148438 -0.25391,0.328126 -0.25391,0.539063 0,0.269531 0.0781,0.488281 0.23047,0.664063 0.15235,0.175781 0.39063,0.363281 0.70703,0.558593 l 0.44922,0.269531 c 0.48438,0.292969 0.86719,0.601563 1.14453,0.933594 0.27735,0.335938 0.41407,0.765625 0.41407,1.292969 0,0.570313 -0.19532,1.046875 -0.58594,1.4375 -0.39063,0.386719 -0.95313,0.582031 -1.6875,0.582031 -0.28906,0 -0.54297,-0.03125 -0.75781,-0.08984 -0.22266,-0.0625 -0.41016,-0.128906 -0.57422,-0.210937 -0.16406,-0.07813 -0.30078,-0.167969 -0.41016,-0.261719 -0.10937,-0.09375 -0.19922,-0.179687 -0.26953,-0.261718 l 0.58203,-0.953126 c 0.0586,0.05859 0.12891,0.125 0.21485,0.207032 0.0859,0.08203 0.1875,0.15625 0.30859,0.234375 0.11719,0.07031 0.25,0.136719 0.39844,0.183593 0.14843,0.05078 0.32031,0.07422 0.51953,0.07422 0.35937,0 0.6289,-0.07813 0.82031,-0.238281 0.1875,-0.160156 0.28125,-0.351562 0.28125,-0.582031 0,-0.167969 -0.0195,-0.316407 -0.0664,-0.441407 -0.043,-0.125 -0.11328,-0.234374 -0.19921,-0.335937 -0.0898,-0.09766 -0.19922,-0.195313 -0.32813,-0.28125 -0.12891,-0.08984 -0.27734,-0.191406 -0.44531,-0.300781 l -0.44922,-0.285156 c -0.44531,-0.289063 -0.79297,-0.589844 -1.04688,-0.910157 -0.2539,-0.320312 -0.3789,-0.726562 -0.3789,-1.226562 0,-0.269531 0.0508,-0.515625 0.15625,-0.738281 0.10547,-0.222657 0.25,-0.417969 0.4375,-0.582032 0.1875,-0.164062 0.41015,-0.292968 0.66406,-0.390625 0.25,-0.09375 0.52344,-0.140625 0.80859,-0.140625 0.28125,0 0.51563,0.02734 0.71485,0.08203 0.19922,0.05469 0.37109,0.125 0.51172,0.210937 0.14453,0.08203 0.26172,0.167969 0.35937,0.253906 0.0937,0.08203 0.17188,0.15625 0.23047,0.214844 z m -6.94922,-0.640624 c -0.42578,0 -0.76953,0.175781 -1.02734,0.535156 -0.25782,0.359375 -0.40625,0.875 -0.44532,1.554687 h 2.60157 c 0.0117,-0.05078 0.0195,-0.121093 0.0234,-0.21875 0.004,-0.09375 0.008,-0.195312 0.008,-0.304687 0,-0.5 -0.0977,-0.882813 -0.29688,-1.15625 -0.19922,-0.273438 -0.48437,-0.410156 -0.86328,-0.410156 z m 2.26172,1.609374 c 0,0.3125 -0.0117,0.578126 -0.0312,0.800782 -0.0195,0.222656 -0.0391,0.421875 -0.0586,0.589844 h -3.64454 c 0.0391,0.847656 0.21875,1.472656 0.53907,1.867187 0.32422,0.398437 0.78906,0.597656 1.39453,0.597656 0.20703,0 0.39453,-0.02344 0.5664,-0.07422 0.16797,-0.04687 0.3125,-0.109374 0.4375,-0.179687 0.125,-0.07031 0.22657,-0.136719 0.3125,-0.207031 0.0859,-0.07031 0.14454,-0.125 0.1836,-0.164063 l 0.44922,0.851563 c -0.0508,0.04687 -0.125,0.121094 -0.22266,0.214844 -0.0977,0.09375 -0.23437,0.191406 -0.40234,0.285156 -0.16797,0.09375 -0.37891,0.175781 -0.625,0.246094 -0.25,0.07031 -0.54297,0.105468 -0.87891,0.105468 -0.44531,0 -0.84766,-0.07422 -1.21484,-0.226562 -0.35938,-0.144532 -0.66797,-0.378906 -0.91797,-0.691406 -0.25391,-0.316407 -0.45313,-0.714844 -0.58985,-1.195313 -0.13671,-0.484375 -0.20703,-1.066406 -0.20703,-1.742187 0,-0.640626 0.0742,-1.1875 0.21485,-1.652344 0.14062,-0.460938 0.33984,-0.84375 0.58593,-1.140625 0.25,-0.300781 0.53516,-0.523438 0.86329,-0.667969 0.32812,-0.144531 0.67968,-0.214844 1.05859,-0.214844 0.68359,0 1.21875,0.214844 1.60547,0.648438 0.38672,0.4375 0.58203,1.085937 0.58203,1.949218 z m -7.695314,-2.597656 c 0,-0.65625 -0.179687,-1.140625 -0.542968,-1.457031 -0.359376,-0.3125 -0.929688,-0.46875 -1.703126,-0.46875 h -0.625 v 4.046875 h 0.566407 c 0.78125,0 1.363281,-0.183594 1.742187,-0.550781 0.375,-0.371094 0.5625,-0.894531 0.5625,-1.570313 z m 0.523438,7.351563 -2.128906,-4.230469 c -0.109376,0.01172 -0.222657,0.01953 -0.34375,0.02344 -0.117188,0.0039 -0.234376,0.0078 -0.355469,0.0078 h -0.566407 v 4.199219 H 95.214844 V 76.707031 h 1.917968 c 1.242188,0 2.15625,0.238281 2.746094,0.722656 0.589844,0.484375 0.886724,1.203125 0.886724,2.160157 0,0.6875 -0.14454,1.273437 -0.4336,1.761718 -0.28515,0.488282 -0.730468,0.863282 -1.324218,1.121094 l 2.410158,4.542969 z M 87.417969,86.117187 c 0.1875,0 0.355469,-0.02344 0.503906,-0.07422 0.148437,-0.04687 0.277344,-0.113281 0.386719,-0.183593 0.109375,-0.07813 0.203125,-0.152344 0.277344,-0.234375 0.07422,-0.08203 0.132812,-0.148438 0.171874,-0.207032 v -4.425781 c -0.109374,-0.07031 -0.238281,-0.128906 -0.378906,-0.175781 -0.144531,-0.05078 -0.328125,-0.07422 -0.546875,-0.07422 -0.277343,0 -0.535156,0.04687 -0.777343,0.140625 -0.246094,0.09375 -0.457032,0.25 -0.632813,0.46875 -0.179687,0.21875 -0.320313,0.503906 -0.425781,0.851563 -0.101563,0.347656 -0.15625,0.777343 -0.15625,1.285156 0,0.5 0.04297,0.914063 0.128906,1.246094 0.08203,0.335937 0.199219,0.605469 0.347656,0.808593 0.148438,0.203126 0.316406,0.351563 0.507813,0.441407 0.1875,0.08984 0.386719,0.132812 0.59375,0.132812 z m -2.828125,-2.582031 c 0,-0.730469 0.09375,-1.335938 0.28125,-1.824219 0.191406,-0.488281 0.433594,-0.882812 0.730468,-1.179687 0.296876,-0.300782 0.636719,-0.511719 1.011719,-0.636719 0.378907,-0.125 0.753907,-0.1875 1.132813,-0.1875 0.226562,0 0.425781,0.01953 0.59375,0.05469 0.167968,0.03516 0.308594,0.07813 0.417968,0.128907 v -3.4375 l 1.203126,-0.136722 v 10.699219 h -1.101563 v -0.761719 h -0.02734 c -0.03125,0.05859 -0.08594,0.140625 -0.164062,0.246094 -0.08203,0.105468 -0.191407,0.207031 -0.328125,0.3125 -0.140625,0.105468 -0.3125,0.195312 -0.519532,0.269531 -0.210937,0.07422 -0.453124,0.113281 -0.730468,0.113281 -0.335938,0 -0.65625,-0.07031 -0.957032,-0.203125 C 85.828125,86.859375 85.5625,86.644531 85.335938,86.351562 85.105469,86.054687 84.925781,85.675781 84.789062,85.214844 84.65625,84.75 84.589844,84.191406 84.589844,83.535156 Z m -2.679688,3.480469 v -4.617188 c 0,-0.609375 -0.101562,-1.042969 -0.304687,-1.308593 -0.203125,-0.261719 -0.511719,-0.394532 -0.929688,-0.394532 -0.355469,0 -0.652343,0.08984 -0.890625,0.269532 -0.238281,0.179687 -0.429687,0.351562 -0.566406,0.523437 v 5.527344 H 78.015625 V 79.84375 h 1.097656 v 0.808594 h 0.03125 c 0.02734,-0.0625 0.09375,-0.148438 0.191407,-0.265626 0.101562,-0.113281 0.230468,-0.222656 0.386718,-0.328124 0.160156,-0.101563 0.351563,-0.195313 0.566406,-0.273438 0.21875,-0.08203 0.46875,-0.121094 0.746094,-0.121094 0.316406,0 0.605469,0.04687 0.863282,0.140625 0.257812,0.09766 0.476562,0.246094 0.652343,0.457031 0.179688,0.210938 0.316407,0.480469 0.417969,0.8125 0.09766,0.335938 0.148438,0.746094 0.148438,1.234376 v 4.707031 z m -8.09375,-0.855469 c 0.171875,0 0.320313,-0.02344 0.449219,-0.07031 0.128906,-0.05078 0.238281,-0.109376 0.332031,-0.179688 0.09375,-0.07031 0.175782,-0.148438 0.238282,-0.234375 0.06641,-0.08203 0.121093,-0.15625 0.171874,-0.214844 v -1.582033 l -0.386718,0.01172 c -0.574219,0.02344 -1.011719,0.121093 -1.308594,0.300781 -0.296875,0.179688 -0.445312,0.46875 -0.445312,0.867188 0,0.367187 0.08203,0.644531 0.25,0.828124 0.167968,0.183594 0.402343,0.273438 0.699218,0.273437 z m -2.15625,-0.96875 c 0,-0.417969 0.07813,-0.765625 0.238282,-1.042969 0.160156,-0.28125 0.371093,-0.507812 0.640624,-0.679687 0.265626,-0.175782 0.582032,-0.300782 0.945313,-0.375 0.359375,-0.07422 0.746094,-0.113282 1.152344,-0.113282 h 0.371093 v -0.6875 c 0,-0.605468 -0.105468,-1.027343 -0.320312,-1.253906 -0.210938,-0.230468 -0.511719,-0.34375 -0.898438,-0.34375 -0.359374,0 -0.65625,0.07813 -0.894531,0.230469 -0.238281,0.15625 -0.425781,0.292969 -0.566406,0.410156 L 71.824219,80.53125 c 0.07813,-0.08203 0.179687,-0.171875 0.304687,-0.269532 0.125,-0.101562 0.273438,-0.195312 0.453125,-0.285156 0.179688,-0.08594 0.382813,-0.164062 0.609375,-0.222656 0.230469,-0.05859 0.488282,-0.08984 0.773438,-0.08984 0.734375,0 1.292968,0.203125 1.667968,0.613282 0.378907,0.40625 0.566407,1.066406 0.566407,1.972656 v 3.269531 c 0,0.308594 0.0078,0.609375 0.02734,0.90625 0.01953,0.292969 0.04297,0.488281 0.0625,0.589844 h -1.148437 l -0.04297,-0.792969 h -0.03125 c -0.03906,0.08984 -0.09766,0.191406 -0.175781,0.308594 -0.08203,0.113281 -0.179687,0.21875 -0.300781,0.3125 -0.117188,0.09375 -0.261719,0.175781 -0.429688,0.246094 -0.167968,0.07031 -0.367187,0.105468 -0.59375,0.105468 -0.269531,0 -0.519531,-0.05078 -0.753906,-0.152344 -0.230469,-0.09766 -0.433594,-0.238281 -0.609375,-0.417968 -0.171871,-0.179692 -0.30859,-0.390629 -0.40234,-0.632817 -0.09375,-0.246093 -0.140625,-0.511719 -0.140625,-0.800781 z M 136.46094,71.949218 v -4.617187 c 0,-0.609375 -0.10157,-1.042969 -0.30469,-1.308594 -0.20313,-0.261719 -0.51172,-0.394531 -0.92969,-0.394531 -0.35937,0 -0.65625,0.08984 -0.89453,0.269531 -0.23828,0.179688 -0.42578,0.351563 -0.56641,0.523438 v 5.527343 h -1.20312 v -7.171874 h 1.10156 v 0.808593 h 0.0312 c 0.0273,-0.0625 0.0898,-0.148437 0.19141,-0.261719 0.0977,-0.117187 0.22656,-0.226562 0.38672,-0.332031 0.15625,-0.101562 0.34765,-0.195312 0.5664,-0.273437 0.21875,-0.08203 0.46485,-0.121094 0.74219,-0.121094 0.32031,0 0.60547,0.04687 0.86328,0.140625 0.25781,0.09766 0.47656,0.25 0.65625,0.457031 0.17969,0.210938 0.31641,0.480469 0.41797,0.816406 0.0977,0.332032 0.14844,0.742188 0.14844,1.230469 v 4.707031 z m -6.66797,-3.585937 c 0,-0.957031 -0.13672,-1.652344 -0.41406,-2.085937 -0.27735,-0.429688 -0.66407,-0.648438 -1.16016,-0.648438 -0.49609,0 -0.88281,0.21875 -1.15625,0.648438 -0.26953,0.433593 -0.41016,1.128906 -0.41016,2.085937 0,0.957031 0.14063,1.644531 0.41797,2.0625 0.27735,0.417969 0.66797,0.625 1.16016,0.625 0.49609,0 0.88281,-0.207031 1.15625,-0.625 0.26953,-0.417969 0.40625,-1.105469 0.40625,-2.0625 z m -4.38672,0 c 0,-0.65625 0.0742,-1.226563 0.23047,-1.703125 0.15234,-0.480469 0.35937,-0.871094 0.62109,-1.171875 0.26563,-0.304687 0.56641,-0.527344 0.91016,-0.671875 0.34375,-0.144531 0.70703,-0.21875 1.09375,-0.21875 0.39453,0 0.76562,0.07422 1.10156,0.21875 0.33594,0.144531 0.62891,0.367188 0.87891,0.671875 0.24609,0.300781 0.4414,0.691406 0.58593,1.171875 0.14454,0.476562 0.21485,1.046875 0.21485,1.703125 0,0.667969 -0.0742,1.238281 -0.22266,1.71875 -0.14844,0.476563 -0.35156,0.867187 -0.61719,1.171875 -0.26171,0.304688 -0.5664,0.527344 -0.91796,0.664062 -0.34375,0.140626 -0.71094,0.210938 -1.09766,0.210938 -0.39453,0 -0.76562,-0.07031 -1.10156,-0.210938 -0.33985,-0.136718 -0.62891,-0.359374 -0.87891,-0.664062 -0.24609,-0.304688 -0.44531,-0.691406 -0.58594,-1.164062 -0.14453,-0.476563 -0.21484,-1.050782 -0.21484,-1.726563 z m -2.11328,-5.320313 c -0.25,0 -0.44922,-0.07812 -0.59766,-0.238281 -0.14843,-0.160156 -0.22265,-0.367187 -0.22265,-0.628906 0,-0.246094 0.0742,-0.453125 0.22265,-0.613281 0.14844,-0.15625 0.34766,-0.234375 0.59766,-0.234375 0.23437,0 0.43359,0.07813 0.57812,0.234375 0.14844,0.160156 0.22266,0.367187 0.22266,0.613281 0,0.261719 -0.0742,0.46875 -0.22266,0.628906 -0.14453,0.160157 -0.34375,0.238281 -0.57812,0.238281 z m 0.59375,8.90625 h -1.20313 v -7.171874 h 1.20313 z m -2.57031,-6.1875 H 119.75 v 3.976563 c 0,0.507813 0.0625,0.851563 0.19531,1.039063 0.12891,0.183593 0.34375,0.273437 0.65235,0.273437 0.17968,0 0.33203,-0.02344 0.46093,-0.07422 0.12891,-0.04687 0.22266,-0.09375 0.28516,-0.132812 l 0.16406,0.96875 c -0.0508,0.04297 -0.16797,0.101562 -0.35937,0.1875 -0.1875,0.08594 -0.4375,0.128906 -0.75781,0.128906 -0.61329,0 -1.07422,-0.171875 -1.38282,-0.515625 -0.30859,-0.34375 -0.46093,-0.914063 -0.46093,-1.710937 v -4.140626 h -0.86329 V 64.95703 l 0.86329,-0.179687 0.13281,-2.003907 H 119.75 v 2.003907 h 1.71094 z m -7.25,5.335938 c 0.16797,0 0.3164,-0.02344 0.44531,-0.07422 0.12891,-0.05078 0.24219,-0.113281 0.33594,-0.179687 0.0937,-0.07031 0.17187,-0.148438 0.23828,-0.234375 0.0625,-0.08203 0.11719,-0.15625 0.17187,-0.214844 v -1.582031 l -0.39062,0.01563 c -0.57422,0.01953 -1.01172,0.117187 -1.3086,0.296875 -0.29687,0.179687 -0.44531,0.46875 -0.44531,0.867187 0,0.367188 0.0859,0.644531 0.25391,0.828125 0.16797,0.183594 0.40234,0.277344 0.69922,0.277344 z M 111.91016,70.125 c 0,-0.417969 0.0781,-0.765625 0.23437,-1.042969 0.16016,-0.28125 0.375,-0.507813 0.64063,-0.679687 0.26953,-0.175782 0.58593,-0.300782 0.94531,-0.375 0.36328,-0.07422 0.75,-0.113282 1.15234,-0.113282 h 0.375 v -0.6875 c 0,-0.605468 -0.10937,-1.023437 -0.32031,-1.253906 -0.21484,-0.230469 -0.51562,-0.34375 -0.90234,-0.34375 -0.35547,0 -0.65235,0.07813 -0.89063,0.230469 -0.23828,0.15625 -0.42578,0.292969 -0.5664,0.414062 l -0.50391,-0.808593 c 0.0781,-0.07813 0.17969,-0.167969 0.30469,-0.269532 0.12109,-0.09766 0.27343,-0.195312 0.45312,-0.285156 0.17969,-0.08594 0.38281,-0.164062 0.60938,-0.222656 0.23047,-0.05859 0.48437,-0.08984 0.77343,-0.08984 0.73438,0 1.28907,0.203125 1.66797,0.613281 0.375,0.410157 0.56641,1.066407 0.56641,1.972657 v 3.269531 c 0,0.308593 0.008,0.613281 0.0273,0.90625 0.0234,0.292969 0.043,0.488281 0.0625,0.589843 h -1.14843 l -0.043,-0.792968 h -0.0312 c -0.0391,0.08984 -0.0977,0.191406 -0.17969,0.308594 -0.0781,0.113281 -0.17578,0.21875 -0.29688,0.3125 -0.12109,0.09375 -0.26171,0.175781 -0.42968,0.246093 -0.17188,0.07031 -0.3711,0.105469 -0.59766,0.105469 -0.26953,0 -0.51562,-0.05078 -0.75,-0.148438 -0.23437,-0.101562 -0.4375,-0.242187 -0.61328,-0.421874 -0.17188,-0.175782 -0.30469,-0.390626 -0.39844,-0.632813 -0.0977,-0.246094 -0.14062,-0.511719 -0.14062,-0.800781 z m -1.35547,-3.957032 c -0.0312,-0.03125 -0.0781,-0.07422 -0.14063,-0.136718 -0.0664,-0.05859 -0.14453,-0.117188 -0.24609,-0.179688 -0.10156,-0.05859 -0.21875,-0.109375 -0.35938,-0.15625 -0.13671,-0.04297 -0.29687,-0.06641 -0.47265,-0.06641 -0.25781,0 -0.5,0.04687 -0.72266,0.140625 -0.22265,0.09766 -0.41797,0.25 -0.57812,0.457031 -0.16407,0.207032 -0.29297,0.480469 -0.39063,0.8125 -0.0937,0.335938 -0.14062,0.742188 -0.14062,1.21875 0,0.527344 0.043,0.972656 0.125,1.332032 0.0859,0.355468 0.20312,0.644531 0.35156,0.859374 0.14844,0.210938 0.32812,0.367188 0.54297,0.460938 0.21094,0.09375 0.44922,0.140625 0.70703,0.140625 0.36328,0 0.64844,-0.0625 0.83984,-0.191406 0.19532,-0.132813 0.33203,-0.234375 0.41016,-0.316407 l 0.48828,0.839844 c -0.0469,0.05859 -0.12109,0.128906 -0.21094,0.214844 -0.0977,0.08594 -0.21875,0.167969 -0.36718,0.246094 -0.14844,0.07813 -0.33204,0.148437 -0.54297,0.203125 -0.21094,0.05469 -0.45703,0.08203 -0.73828,0.08203 -0.39454,0 -0.76563,-0.06641 -1.11329,-0.195312 -0.34765,-0.128907 -0.65234,-0.34375 -0.91015,-0.644532 -0.25781,-0.296875 -0.46094,-0.683594 -0.60938,-1.164062 -0.14453,-0.476563 -0.22265,-1.070313 -0.22265,-1.777344 0,-0.6875 0.0898,-1.269531 0.26953,-1.746094 0.17578,-0.480468 0.41015,-0.867187 0.69922,-1.160156 0.28906,-0.292969 0.60547,-0.507812 0.95703,-0.640625 0.35547,-0.136719 0.70703,-0.203125 1.0625,-0.203125 0.26953,0 0.5039,0.02734 0.71094,0.07422 0.20312,0.05078 0.375,0.113281 0.51953,0.1875 0.14453,0.07422 0.26562,0.15625 0.35547,0.238281 0.0977,0.08594 0.17187,0.160156 0.23437,0.21875 z m -5.81641,5.78125 h -1.10156 v -0.808593 h -0.0273 c -0.0312,0.0625 -0.0977,0.148437 -0.19532,0.261719 -0.0977,0.117187 -0.22656,0.226562 -0.3789,0.328124 -0.15625,0.105469 -0.34375,0.199219 -0.5586,0.277344 -0.21875,0.08203 -0.46093,0.121094 -0.73047,0.121094 -0.3164,0 -0.60156,-0.04687 -0.85546,-0.144531 -0.25,-0.09375 -0.46875,-0.246094 -0.64454,-0.453125 -0.17968,-0.210938 -0.316402,-0.480469 -0.410152,-0.816406 -0.09766,-0.332032 -0.140626,-0.742188 -0.140626,-1.230469 v -4.707031 h 1.203128 v 4.617187 c 0,0.597656 0.0977,1.023437 0.28906,1.277344 0.19531,0.253906 0.49219,0.378906 0.90234,0.378906 0.34375,0 0.63672,-0.08594 0.875,-0.261719 0.23829,-0.171875 0.42969,-0.34375 0.56641,-0.515625 v -5.496093 h 1.20703 z m -9.390624,-0.898437 c 0.1875,0 0.359375,-0.02344 0.507813,-0.07422 0.148437,-0.04687 0.277343,-0.109375 0.386719,-0.1875 0.105468,-0.07422 0.199218,-0.148437 0.273437,-0.230468 0.07422,-0.07813 0.132813,-0.148438 0.171875,-0.207032 V 65.92578 c -0.109375,-0.06641 -0.234375,-0.128906 -0.378906,-0.175781 -0.144532,-0.05078 -0.324219,-0.07813 -0.542969,-0.07813 -0.277344,0 -0.539063,0.05078 -0.78125,0.144531 -0.242187,0.09375 -0.453125,0.25 -0.632813,0.46875 -0.179687,0.222656 -0.320312,0.503906 -0.425781,0.851562 -0.101562,0.351563 -0.15625,0.777344 -0.15625,1.285157 0,0.5 0.04297,0.914062 0.128907,1.246093 0.08203,0.335938 0.199218,0.605469 0.347656,0.808594 0.148437,0.203125 0.320312,0.351563 0.507812,0.441406 0.1875,0.08984 0.386719,0.132813 0.59375,0.132813 z M 92.523438,68.46875 c 0,-0.726563 0.09375,-1.335938 0.28125,-1.824219 0.1875,-0.488281 0.429687,-0.882813 0.726562,-1.179687 0.300781,-0.300782 0.636719,-0.511719 1.011719,-0.636719 0.378906,-0.121094 0.753906,-0.183594 1.132812,-0.183594 0.230469,0 0.425781,0.01563 0.59375,0.05078 0.167969,0.03516 0.308594,0.07813 0.417969,0.128906 v -3.4375 l 1.207031,-0.136718 v 10.699218 h -1.101562 v -0.761718 h -0.03125 c -0.03125,0.05859 -0.08594,0.140625 -0.164063,0.246094 -0.07813,0.105468 -0.1875,0.207031 -0.328125,0.3125 -0.136719,0.105468 -0.3125,0.195312 -0.519531,0.269531 -0.207031,0.07422 -0.453125,0.113281 -0.730469,0.113281 -0.335937,0 -0.65625,-0.06641 -0.957031,-0.203125 -0.304688,-0.132813 -0.566406,-0.347656 -0.796875,-0.640625 -0.230469,-0.296875 -0.410156,-0.675781 -0.542969,-1.136719 -0.132812,-0.464843 -0.199218,-1.023437 -0.199218,-1.679686 z m -1.414063,-5.800782 h -3.664063 v 3.558594 h 3.363282 v 1.03125 h -3.363282 v 3.613282 h 4.035157 l -0.07422,1.078124 H 86.152344 V 61.640625 h 5.046875 z m -9.285156,3.09375 h -1.460938 v 6.1875 h -1.203125 v -6.1875 h -0.863281 v -0.804687 l 0.863281,-0.164063 v -1.433593 c 0,-0.390625 0.05469,-0.722657 0.164063,-1.003907 0.109375,-0.277343 0.25,-0.507812 0.429687,-0.6875 0.179688,-0.179687 0.386719,-0.308593 0.625,-0.386718 0.238282,-0.07813 0.492188,-0.121094 0.761719,-0.121094 0.257813,0 0.472656,0.03516 0.652344,0.105469 0.179687,0.07031 0.296875,0.125 0.359375,0.164062 l -0.253906,1 c -0.05859,-0.03906 -0.144532,-0.08203 -0.253907,-0.125 -0.109375,-0.04687 -0.242187,-0.06641 -0.402343,-0.06641 -0.289063,0 -0.503907,0.08984 -0.652344,0.269531 -0.148438,0.175782 -0.226563,0.507813 -0.226563,0.984375 v 1.285157 h 1.609375 z m -5.683594,2.601563 c 0,-0.957031 -0.140625,-1.652344 -0.417969,-2.085937 -0.277344,-0.429688 -0.664062,-0.648438 -1.160156,-0.648438 -0.496094,0 -0.882812,0.21875 -1.15625,0.648438 C 73.136719,66.710937 73,67.40625 73,68.363281 c 0,0.957031 0.140625,1.644531 0.414062,2.0625 0.28125,0.417969 0.667969,0.625 1.164063,0.625 0.496094,0 0.878906,-0.207031 1.152344,-0.625 0.273437,-0.417969 0.410156,-1.105469 0.410156,-2.0625 z m -4.390625,0 c 0,-0.65625 0.07813,-1.226563 0.230469,-1.703125 0.152343,-0.480469 0.363281,-0.871094 0.625,-1.171875 0.261719,-0.304687 0.5625,-0.527344 0.90625,-0.671875 0.34375,-0.144531 0.707031,-0.21875 1.09375,-0.21875 0.398437,0 0.765625,0.07422 1.101562,0.21875 0.335938,0.144531 0.628907,0.367188 0.878907,0.671875 0.246093,0.300781 0.445312,0.691406 0.585937,1.171875 0.144531,0.476562 0.21875,1.046875 0.21875,1.703125 0,0.667969 -0.07813,1.238281 -0.226563,1.71875 -0.148437,0.476563 -0.355468,0.867187 -0.617187,1.171875 -0.261719,0.304688 -0.566406,0.527344 -0.914063,0.664062 -0.347656,0.140626 -0.714843,0.210938 -1.101562,0.210938 -0.394531,0 -0.761719,-0.07031 -1.101562,-0.210938 -0.335938,-0.136718 -0.628907,-0.359374 -0.875,-0.664062 -0.25,-0.304688 -0.445313,-0.691406 -0.589844,-1.164062 C 71.820312,69.613281 71.75,69.039062 71.75,68.363281 Z m 85.49609,-18.652344 -2.23047,7.589844 c -0.25781,0.875 -0.57421,1.539063 -0.94531,1.988281 -0.37109,0.445313 -0.91015,0.671875 -1.61719,0.671875 -0.14453,0 -0.26953,-0.01953 -0.37109,-0.05078 -0.0977,-0.03906 -0.16797,-0.0625 -0.20703,-0.08594 v -1.042968 c 0.0508,0.01953 0.11328,0.03906 0.19141,0.06641 0.082,0.02344 0.1875,0.03906 0.3125,0.03906 0.42968,0 0.7539,-0.136718 0.97656,-0.40625 0.22265,-0.269531 0.41406,-0.679687 0.57422,-1.238281 l 0.10156,-0.375 -2.30469,-7.15625 h 1.29297 l 1.11719,3.972657 c 0.10937,0.410156 0.21094,0.792968 0.29687,1.144531 0.0898,0.355469 0.14453,0.667969 0.16407,0.949219 h 0.0312 c 0.0195,-0.28125 0.0664,-0.59375 0.14062,-0.941407 0.0742,-0.347656 0.16406,-0.726562 0.27344,-1.136719 l 1.01562,-3.988281 z m -5.94922,1.058594 c -0.0312,-0.01953 -0.0977,-0.04297 -0.19921,-0.07422 -0.0937,-0.02734 -0.23047,-0.04297 -0.39844,-0.04297 -0.37891,0 -0.67188,0.101562 -0.88672,0.304687 -0.21094,0.203125 -0.36328,0.425781 -0.44922,0.664063 v 5.261718 h -1.20703 v -7.171875 h 1.10156 v 0.972657 h 0.0273 c 0.0508,-0.140626 0.11328,-0.277344 0.1914,-0.414063 0.082,-0.132813 0.17969,-0.253906 0.30078,-0.359375 0.11719,-0.101562 0.26172,-0.183594 0.42578,-0.246094 0.16407,-0.05859 0.35938,-0.08984 0.58594,-0.08984 0.16797,0 0.30469,0.01563 0.41016,0.04688 0.10156,0.02734 0.18359,0.05469 0.24219,0.07422 z m -4.51171,-0.07422 h -1.5586 v 3.976563 c 0,0.507812 0.0625,0.851562 0.19141,1.035156 0.1289,0.1875 0.34765,0.277344 0.65625,0.277344 0.17578,0 0.32812,-0.02344 0.46094,-0.07422 0.1289,-0.05078 0.21875,-0.09375 0.28125,-0.132812 l 0.16406,0.972656 c -0.0508,0.03906 -0.16797,0.09766 -0.35938,0.183594 -0.1875,0.08594 -0.4375,0.128906 -0.75781,0.128906 -0.61328,0 -1.07422,-0.171875 -1.38281,-0.515625 -0.3086,-0.34375 -0.46094,-0.914063 -0.46094,-1.710938 V 50.69531 h -0.86328 v -0.804687 l 0.86328,-0.179688 0.13281,-2.003906 h 1.07422 v 2.003906 h 1.70703 z m -5.17579,0.464844 c -0.0781,-0.08984 -0.22265,-0.210938 -0.43359,-0.367188 -0.20703,-0.152343 -0.48047,-0.230468 -0.81641,-0.230468 -0.32031,0 -0.55859,0.07422 -0.73046,0.222656 -0.16797,0.152344 -0.25,0.328125 -0.25,0.539062 0,0.269532 0.0781,0.492188 0.23046,0.664063 0.15235,0.175781 0.38672,0.363281 0.70704,0.5625 l 0.44531,0.265625 c 0.48437,0.289062 0.86719,0.601562 1.14453,0.933594 0.27734,0.335937 0.41797,0.765625 0.41797,1.292968 0,0.570313 -0.19531,1.046876 -0.58985,1.4375 -0.39062,0.386719 -0.95312,0.582032 -1.6875,0.582032 -0.28515,0 -0.53906,-0.03125 -0.75781,-0.08984 -0.22265,-0.0625 -0.41015,-0.128906 -0.57422,-0.210938 -0.16406,-0.07812 -0.30078,-0.164062 -0.41015,-0.261718 -0.10938,-0.09375 -0.19922,-0.179688 -0.26563,-0.261719 l 0.58203,-0.957031 c 0.0586,0.0625 0.12891,0.132812 0.21094,0.210937 0.0859,0.08203 0.1875,0.15625 0.30859,0.230469 0.11719,0.07813 0.25,0.136719 0.39844,0.1875 0.14844,0.05078 0.32422,0.07422 0.52344,0.07422 0.35547,0 0.62891,-0.07813 0.81641,-0.238281 0.1875,-0.160157 0.28125,-0.351563 0.28125,-0.582032 0,-0.167968 -0.0195,-0.316406 -0.0625,-0.441406 -0.0469,-0.125 -0.11329,-0.234375 -0.20313,-0.335938 -0.0898,-0.09766 -0.19922,-0.195312 -0.32422,-0.28125 -0.13281,-0.08984 -0.28125,-0.191406 -0.44922,-0.300781 l -0.44922,-0.285156 c -0.44531,-0.289063 -0.79296,-0.589844 -1.04296,-0.910156 -0.25391,-0.320313 -0.38282,-0.726563 -0.38282,-1.226563 0,-0.269531 0.0508,-0.515625 0.15625,-0.738281 0.10547,-0.222656 0.25,-0.417969 0.4375,-0.582031 0.19141,-0.164063 0.41016,-0.292969 0.66407,-0.390625 0.2539,-0.09375 0.52343,-0.140625 0.8125,-0.140625 0.27734,0 0.51171,0.02734 0.71093,0.08203 0.19922,0.05469 0.3711,0.125 0.51563,0.210937 0.14453,0.08203 0.26172,0.167969 0.35547,0.253907 0.0977,0.08203 0.17187,0.15625 0.23047,0.214843 z m -5.51953,-3.183594 c -0.25,0 -0.44531,-0.07813 -0.59765,-0.238281 -0.14844,-0.160156 -0.22266,-0.367187 -0.22266,-0.628906 0,-0.246094 0.0742,-0.453125 0.22266,-0.613281 0.15234,-0.15625 0.34765,-0.238282 0.59765,-0.238282 0.23438,0 0.42969,0.08203 0.57813,0.238282 0.14844,0.160156 0.22265,0.367187 0.22265,0.613281 0,0.261719 -0.0742,0.46875 -0.22265,0.628906 -0.14844,0.160156 -0.34375,0.238281 -0.57813,0.238281 z m 0.59375,8.90625 h -1.20312 v -7.171875 h 1.20312 z m -4.21093,0 v -4.617187 c 0,-0.609375 -0.10157,-1.042969 -0.30469,-1.308594 -0.20313,-0.261719 -0.51563,-0.394531 -0.9336,-0.394531 -0.35546,0 -0.65234,0.08984 -0.89062,0.269531 -0.23828,0.179687 -0.42578,0.351563 -0.56641,0.523437 v 5.527344 h -1.20312 v -7.171875 h 1.10156 v 0.804688 h 0.0312 c 0.0273,-0.05859 0.0937,-0.144531 0.19141,-0.261719 0.10156,-0.113281 0.22656,-0.222656 0.38672,-0.328125 0.16015,-0.101563 0.34765,-0.195313 0.5664,-0.277344 0.21485,-0.07813 0.46485,-0.117187 0.74219,-0.117187 0.32031,0 0.60547,0.04687 0.86328,0.140625 0.25781,0.09766 0.47656,0.246093 0.65234,0.457031 0.17969,0.210938 0.32032,0.480469 0.42188,0.8125 0.0937,0.335938 0.14844,0.746094 0.14844,1.234375 v 4.707031 z m -6.33594,-8.90625 c -0.25,0 -0.44922,-0.07813 -0.59766,-0.238281 -0.14843,-0.160156 -0.22265,-0.367187 -0.22265,-0.628906 0,-0.246094 0.0742,-0.453125 0.22265,-0.613281 0.14844,-0.15625 0.34766,-0.238282 0.59766,-0.238282 0.23437,0 0.42578,0.08203 0.57422,0.238282 0.15234,0.160156 0.22656,0.367187 0.22656,0.613281 0,0.261719 -0.0742,0.46875 -0.22656,0.628906 -0.14844,0.160156 -0.33985,0.238281 -0.57422,0.238281 z m 0.59375,8.90625 h -1.20703 v -7.171875 h 1.20703 z m -3.30469,-10.308594 v 10.308594 h -1.25 v -4.902344 c 0,-0.308593 0,-0.613281 0,-0.910156 0,-0.300781 0.004,-0.578125 0.008,-0.835937 0.004,-0.261719 0.0117,-0.488281 0.0234,-0.6875 0.008,-0.199219 0.0195,-0.355469 0.0273,-0.464844 h -0.043 c -0.0508,0.230469 -0.15235,0.601563 -0.30469,1.113281 -0.15625,0.511719 -0.33203,1.0625 -0.52734,1.652344 l -1.69922,5.035156 h -1.02344 l -1.69929,-5.035155 c -0.19531,-0.589844 -0.37109,-1.140625 -0.52734,-1.652344 -0.15235,-0.511718 -0.25391,-0.882812 -0.30469,-1.113281 h -0.043 c 0.008,0.121094 0.0195,0.277344 0.0273,0.480469 0.0117,0.199218 0.0195,0.425781 0.0234,0.679687 0.004,0.253907 0.008,0.527344 0.008,0.828125 0,0.296875 0,0.601563 0,0.910156 v 4.902344 h -1.2539 V 46.574218 h 1.44531 l 2.42578,7.109376 c 0.10938,0.332031 0.20703,0.652343 0.28906,0.964843 0.0859,0.3125 0.13672,0.585938 0.15625,0.816407 h 0.0312 c 0.0117,-0.230469 0.0586,-0.5 0.14063,-0.808594 0.0859,-0.308594 0.17969,-0.628906 0.28906,-0.957032 l 2.42578,-7.125 z m -14.16406,8.632813 c 0,0.300781 0.043,0.511719 0.125,0.628906 0.0859,0.121094 0.23047,0.179688 0.4375,0.179688 0.11328,0 0.20312,-0.0078 0.27734,-0.03125 0.0742,-0.01953 0.12891,-0.03906 0.17188,-0.05859 l 0.10156,0.898437 c -0.0586,0.02734 -0.16797,0.07031 -0.32812,0.117188 -0.15625,0.05078 -0.3711,0.07422 -0.63672,0.07422 -0.40625,0 -0.73438,-0.121094 -0.98438,-0.371094 -0.24609,-0.25 -0.37109,-0.691406 -0.37109,-1.332031 v -8.992188 l 1.20703,-0.136718 z m -5.38672,0.824219 c 0.16797,0 0.31641,-0.02344 0.44531,-0.07422 0.12891,-0.05078 0.24219,-0.109375 0.33594,-0.179687 0.0937,-0.07031 0.17188,-0.148438 0.23828,-0.234376 0.0664,-0.08203 0.1211,-0.152343 0.17188,-0.214843 v -1.582031 l -0.38672,0.01172 c -0.57813,0.02344 -1.01172,0.121094 -1.3086,0.300782 -0.30078,0.179687 -0.44921,0.46875 -0.44921,0.867187 0,0.367187 0.082,0.644531 0.2539,0.828125 0.16797,0.183594 0.40235,0.277344 0.69922,0.277343 z m -2.15625,-0.972656 c 0,-0.417969 0.0781,-0.765626 0.23828,-1.042969 0.15625,-0.28125 0.3711,-0.507813 0.63672,-0.683594 0.26953,-0.171875 0.58203,-0.296875 0.94531,-0.371094 0.35938,-0.07422 0.7461,-0.113281 1.15235,-0.113281 h 0.375 v -0.6875 c 0,-0.605469 -0.10547,-1.027344 -0.32032,-1.253906 -0.21484,-0.230469 -0.51562,-0.34375 -0.90234,-0.34375 -0.35547,0 -0.65234,0.07813 -0.89062,0.230468 -0.23829,0.15625 -0.42969,0.292969 -0.56641,0.410157 l -0.50781,-0.804688 c 0.082,-0.08203 0.18359,-0.167969 0.30468,-0.269531 0.125,-0.101562 0.27735,-0.195312 0.45704,-0.285156 0.17968,-0.08984 0.3789,-0.164063 0.60937,-0.222656 0.22656,-0.05859 0.48438,-0.08984 0.77344,-0.08984 0.73437,0 1.28906,0.203125 1.66406,0.613281 0.37891,0.40625 0.56641,1.0625 0.56641,1.972656 v 3.273438 c 0,0.304687 0.0117,0.609375 0.0312,0.902343 0.0195,0.292969 0.0391,0.492188 0.0586,0.589844 h -1.14453 l -0.0469,-0.792968 h -0.0273 c -0.0391,0.08984 -0.0977,0.191406 -0.17969,0.308593 -0.082,0.113281 -0.17968,0.21875 -0.29687,0.3125 -0.1211,0.09375 -0.26172,0.175781 -0.4336,0.246094 -0.16796,0.07031 -0.36718,0.105469 -0.59375,0.105469 -0.26562,0 -0.51562,-0.05078 -0.75,-0.152344 -0.23437,-0.09766 -0.4375,-0.238281 -0.60937,-0.417969 -0.17578,-0.175781 -0.30859,-0.390625 -0.40234,-0.632812 -0.0937,-0.246094 -0.14063,-0.511719 -0.14063,-0.800781 z m -0.70312,-4.289063 c -0.0273,-0.01953 -0.0937,-0.04297 -0.19141,-0.07422 -0.0977,-0.02734 -0.23047,-0.04297 -0.40234,-0.04297 -0.375,0 -0.67188,0.101562 -0.886724,0.304687 -0.210937,0.203125 -0.363281,0.425781 -0.453125,0.664063 v 5.261718 h -1.203125 v -7.171875 h 1.101563 v 0.972657 h 0.02734 c 0.05078,-0.140626 0.113282,-0.277344 0.195313,-0.414063 0.07813,-0.132813 0.175781,-0.253906 0.296875,-0.359375 0.117188,-0.101562 0.261719,-0.183594 0.421875,-0.246094 0.167968,-0.05859 0.363288,-0.08984 0.589848,-0.08984 0.16797,0 0.30469,0.01563 0.41016,0.04688 0.10546,0.02734 0.18359,0.05469 0.24218,0.07422 z m -7.007818,-0.253906 c -0.425781,0 -0.765624,0.179687 -1.027343,0.539062 -0.253907,0.359375 -0.40625,0.878907 -0.445313,1.554688 h 2.605469 c 0.0078,-0.05078 0.01563,-0.121094 0.02344,-0.21875 0.0039,-0.09375 0.0078,-0.195313 0.0078,-0.304688 0,-0.496093 -0.101563,-0.882812 -0.300781,-1.15625 -0.199219,-0.277343 -0.484375,-0.414062 -0.863282,-0.414062 z m 2.261719,1.613282 c 0,0.3125 -0.0078,0.578125 -0.02734,0.800781 -0.01953,0.226563 -0.03906,0.421875 -0.0625,0.589844 h -3.644532 c 0.03906,0.847656 0.222656,1.46875 0.546875,1.871094 0.320313,0.394531 0.78125,0.59375 1.386719,0.59375 0.210938,0 0.398438,-0.02344 0.566406,-0.07422 0.167969,-0.05078 0.316406,-0.109375 0.4375,-0.179688 0.125,-0.06641 0.230469,-0.136718 0.3125,-0.207031 0.08594,-0.07031 0.148438,-0.125 0.1875,-0.164062 l 0.445313,0.851562 c -0.05078,0.05078 -0.121094,0.121094 -0.222657,0.214844 -0.09766,0.09766 -0.230468,0.191406 -0.402343,0.285156 -0.167969,0.09375 -0.375,0.175781 -0.621094,0.246094 -0.25,0.07031 -0.542969,0.105469 -0.878906,0.105469 -0.449219,0 -0.851563,-0.07422 -1.210938,-0.226563 -0.363281,-0.148437 -0.671875,-0.378906 -0.925781,-0.691406 -0.253906,-0.316406 -0.449219,-0.714844 -0.585938,-1.195313 -0.140624,-0.484374 -0.210937,-1.0625 -0.210937,-1.742187 0,-0.636719 0.07422,-1.1875 0.21875,-1.652344 0.140625,-0.460937 0.339844,-0.84375 0.585937,-1.144531 0.246094,-0.296875 0.535157,-0.519531 0.863282,-0.660156 0.328125,-0.148438 0.679687,-0.21875 1.054687,-0.21875 0.6875,0 1.222657,0.21875 1.609375,0.648437 0.386719,0.433594 0.578125,1.085938 0.578125,1.949219 z m -8.972656,3.855469 c 0.191406,0 0.359375,-0.02344 0.507813,-0.07422 0.148437,-0.05078 0.277343,-0.109375 0.386718,-0.1875 0.109375,-0.07422 0.199219,-0.148438 0.277344,-0.230469 0.07031,-0.07813 0.128906,-0.148437 0.167969,-0.210937 v -4.421875 c -0.109375,-0.07031 -0.234375,-0.128907 -0.378907,-0.175781 -0.144531,-0.05078 -0.324218,-0.07813 -0.542968,-0.07813 -0.277344,0 -0.539063,0.04688 -0.78125,0.144532 -0.242188,0.09375 -0.453125,0.25 -0.632813,0.46875 -0.179687,0.21875 -0.320312,0.503906 -0.421875,0.851562 -0.105468,0.347656 -0.160156,0.777344 -0.160156,1.285156 0,0.5 0.04297,0.914063 0.128906,1.25 0.08594,0.332032 0.199219,0.601563 0.351563,0.804688 0.148437,0.203125 0.316406,0.351562 0.503906,0.441406 0.1875,0.08984 0.386719,0.132813 0.59375,0.132813 z m -2.824219,-2.582031 c 0,-0.726563 0.09375,-1.335938 0.28125,-1.824219 0.1875,-0.488281 0.429688,-0.882813 0.730469,-1.179688 0.296875,-0.300781 0.632813,-0.511719 1.011719,-0.636719 0.375,-0.125 0.753906,-0.1875 1.128906,-0.1875 0.230469,0 0.425781,0.01953 0.59375,0.05469 0.171875,0.03516 0.308594,0.07813 0.417969,0.125 v -3.433594 l 1.207031,-0.136718 v 10.699218 h -1.101562 v -0.761718 h -0.03125 c -0.03125,0.05859 -0.08203,0.140624 -0.164063,0.246093 -0.07813,0.105469 -0.1875,0.207031 -0.328125,0.3125 -0.136719,0.105469 -0.3125,0.195313 -0.519531,0.269531 -0.207031,0.07422 -0.449219,0.113282 -0.726563,0.113282 -0.339844,0 -0.660156,-0.06641 -0.960937,-0.203125 -0.304688,-0.132813 -0.566407,-0.347657 -0.796875,-0.640625 -0.226563,-0.296875 -0.410156,-0.675782 -0.542969,-1.136719 -0.132813,-0.464844 -0.199219,-1.023437 -0.199219,-1.679687 z m -3.542968,-2.886719 c -0.425782,0 -0.769532,0.179687 -1.027344,0.539062 -0.257813,0.359375 -0.40625,0.878907 -0.445313,1.554688 h 2.601563 c 0.01172,-0.05078 0.01953,-0.121094 0.02344,-0.21875 0.0078,-0.09375 0.0078,-0.195313 0.0078,-0.304688 0,-0.496093 -0.09766,-0.882812 -0.296875,-1.15625 -0.199219,-0.277343 -0.484375,-0.414062 -0.863281,-0.414062 z m 2.261718,1.613281 c 0,0.3125 -0.01172,0.578125 -0.02734,0.800781 -0.01953,0.226563 -0.04297,0.421875 -0.0625,0.589844 h -3.644531 c 0.03906,0.847656 0.222657,1.46875 0.542969,1.871094 0.324219,0.394531 0.785156,0.59375 1.390625,0.59375 0.210937,0 0.398437,-0.02344 0.566406,-0.07422 0.167969,-0.05078 0.316407,-0.109375 0.441407,-0.179688 0.121093,-0.06641 0.226562,-0.136718 0.308593,-0.207031 0.08594,-0.07031 0.148438,-0.125 0.1875,-0.164062 l 0.445313,0.851562 c -0.04687,0.05078 -0.121094,0.121094 -0.222656,0.214844 -0.09766,0.09766 -0.234376,0.191406 -0.402344,0.285156 -0.167969,0.09375 -0.375,0.175781 -0.625,0.246094 -0.246094,0.07031 -0.539063,0.105469 -0.875,0.105469 -0.449219,0 -0.851563,-0.07422 -1.214844,-0.226563 -0.363281,-0.148437 -0.667969,-0.378906 -0.921875,-0.691406 -0.253906,-0.316406 -0.449219,-0.714844 -0.589844,-1.195313 -0.136719,-0.484374 -0.207031,-1.0625 -0.207031,-1.742187 0,-0.636719 0.07031,-1.1875 0.214844,-1.652344 0.144531,-0.460937 0.339844,-0.84375 0.589844,-1.144531 0.246093,-0.296875 0.535156,-0.519531 0.863281,-0.660156 0.328125,-0.148438 0.679687,-0.21875 1.054687,-0.21875 0.683594,0 1.21875,0.21875 1.609375,0.648437 0.382813,0.433594 0.578125,1.085938 0.578125,1.949219 z M 72.328125,56.882812 V 46.574218 H 77.375 l -0.08984,1.03125 H 73.625 v 3.808594 h 3.378906 v 1.03125 H 73.625 v 4.4375 h -1.296875"
     id="path11" />
  <path
     style="fill:#211e1e;fill-opacity:1;fill-rule:nonzero;stroke:none"
     d="m 39.484375,56.050781 c 0.03516,-0.277344 0.05469,-0.570313 0.05469,-0.867187 0,-0.160157 0,-0.347657 -0.01953,-0.5625 2.492188,-0.03516 4.679688,-1.839844 4.679688,-3.910157 0,-1.054687 -0.683594,-1.851562 -1.074219,-2.328125 0.08984,-0.01953 0.175781,-0.03906 0.265625,-0.05859 0.363281,0.316407 1.398437,1.449219 1.398437,2.878907 0,2.488281 -2.476562,4.796875 -5.304687,4.847656 z m -2.507813,-8.660156 c -0.04687,-0.277344 -0.152343,-0.53125 -0.3125,-0.746094 0.0078,-0.25 0.113282,-0.496094 0.519532,-0.292969 -0.222656,0.222656 -0.05078,0.625 -0.05078,0.625 0,0 0.449219,-0.210937 0.355469,-0.507812 0.667969,0.160156 0.1875,1.058594 -0.511719,0.921875 z m -0.582031,1.273437 c -0.08984,-0.371094 -0.277343,-0.75 -0.519531,-1.039062 -0.21875,-0.261719 -0.582031,-0.570313 -1.074219,-0.570313 -0.222656,0 -0.597656,0.105469 -0.835937,0.207031 -0.08984,-0.164062 -0.265625,-0.554687 -0.265625,-0.734374 0,-0.179688 0.308593,-0.367188 0.894531,-0.367188 1.289062,0 2.0625,0.585938 2.0625,1.570312 0,0.34375 -0.136719,0.65625 -0.261719,0.933594 z m 3.316407,16.703125 c 0.148437,0 0.222656,0.02344 0.308593,0.05469 0.371094,1.015625 1.804688,2.929687 1.863281,3.011719 l 0.01172,0.01562 0.02344,-0.0039 c 0.351559,-0.05469 1.24609,-0.19141 1.99609,-0.19141 h 0.01563 c 0.08594,0 0.175781,0 0.234374,0.05469 0.05078,0.05078 0.07422,0.136718 0.07422,0.257812 0,0.1875 -0.08203,0.507812 -0.175781,0.644531 -0.261719,-0.285156 -0.6875,-0.414062 -1.371094,-0.414062 -0.207031,0 -0.449218,0.05859 -0.578125,0.09375 l -0.05469,0.01172 -0.0625,0.01562 0.394531,0.398438 c 0.609375,0.609375 1.136719,1.132812 1.136719,1.484375 0,0.210937 -0.207032,0.484375 -0.394532,0.609375 -0.04297,-0.644531 -0.6875,-1.5 -1.316406,-1.984375 l -0.05469,-0.03906 -0.0078,0.226563 c -0.01172,0.152344 -0.02344,0.382813 -0.02344,0.628906 0,1.222657 -0.125,1.40625 -0.546875,1.40625 -0.0625,0 -0.164063,-0.01563 -0.222656,-0.03906 0.238281,-0.296875 0.332031,-0.683594 0.332031,-1.367188 l -0.0039,-0.316406 -0.0039,-0.253906 c 0,-0.277344 0.02734,-0.488281 0.05078,-0.652344 l 0.01172,-0.09375 -0.06641,-0.01172 c -0.195312,-0.02734 -0.5625,-0.07813 -0.84375,-0.07813 -0.601562,0 -1.007812,0.05469 -1.304688,0.335938 -0.195312,-0.15625 -0.394531,-0.429688 -0.394531,-0.601563 0,-0.257812 0.15625,-0.277344 0.363281,-0.277344 0.105469,0 0.203126,0.01563 0.339844,0.03125 0.257813,0.03906 0.648438,0.09766 1.449219,0.09766 h 0.05078 l -0.01563,-0.05078 c -0.203125,-0.582032 -0.761719,-1.429688 -1.65625,-2.523438 0.07813,-0.289062 0.160157,-0.480469 0.441407,-0.480469 z m -7.722657,3.003907 -0.01563,0.05078 h 0.05078 c 0.800781,0 1.191406,-0.05859 1.449218,-0.09766 0.136719,-0.01562 0.234375,-0.03125 0.335938,-0.03125 0.207031,0 0.367187,0.01953 0.367187,0.277344 0,0.171875 -0.199219,0.445313 -0.394531,0.601563 -0.296875,-0.28125 -0.703125,-0.335938 -1.304688,-0.335938 -0.28125,0 -0.648437,0.05078 -0.84375,0.07813 l -0.03125,0.0039 -0.03516,0.0078 0.01172,0.09375 c 0.02344,0.164063 0.05078,0.375 0.05078,0.652344 l -0.0039,0.253906 -0.0039,0.316406 c 0,0.683594 0.09375,1.070313 0.332031,1.367188 -0.05859,0.02344 -0.160156,0.03906 -0.226563,0.03906 -0.417968,0 -0.542968,-0.183593 -0.542968,-1.40625 0,-0.246093 -0.01172,-0.476562 -0.02344,-0.628906 l -0.0078,-0.226563 -0.05469,0.03906 c -0.628906,0.484375 -1.273437,1.339844 -1.3125,1.984375 -0.191406,-0.125 -0.394531,-0.398438 -0.394531,-0.609375 0,-0.351563 0.523437,-0.875 1.132813,-1.484375 l 0.347656,-0.351562 0.04297,-0.04688 -0.113281,-0.02734 c -0.132812,-0.03516 -0.375,-0.09375 -0.578125,-0.09375 -0.683594,0 -1.109375,0.128906 -1.375,0.414062 -0.09376,-0.136695 -0.171886,-0.457007 -0.171886,-0.644507 0,-0.121094 0.02344,-0.207031 0.07031,-0.257812 0.0625,-0.05469 0.152347,-0.05469 0.234378,-0.05469 h 0.01563 c 0.753906,0 1.652344,0.136719 2,0.191406 l 0.02344,0.0039 0.01172,-0.01562 c 0.0625,-0.08203 1.492188,-1.996094 1.863281,-3.011719 0.08594,-0.03125 0.160157,-0.05469 0.308594,-0.05469 0.28125,0 0.359375,0.191407 0.441406,0.480469 -0.894531,1.09375 -1.453125,1.941406 -1.65625,2.523438 z M 28.121094,51.203125 c 0,-1.429688 1.039062,-2.5625 1.402344,-2.878907 0.08984,0.01953 0.175781,0.03906 0.261718,0.05859 -0.386718,0.476563 -1.070312,1.273438 -1.070312,2.328125 0,2.09375 2.230468,3.910157 4.75,3.910157 -0.01563,0.179687 -0.02344,0.367187 -0.02344,0.5625 0,0.308593 0.01563,0.597656 0.04687,0.867187 -2.851562,-0.01563 -5.367187,-2.339844 -5.367187,-4.847656 z m 19.140625,4.414062 c 1.28125,2.03125 2.28125,1.996094 3.796875,1.996094 -1.253906,-0.960937 -2.082032,-2.195313 -2.476563,-2.828125 L 46.246094,51.03125 c -0.230469,-1.160156 -0.828125,-2.246094 -1.722656,-3.054688 0.300781,-0.113281 0.550781,-0.234375 0.703124,-0.347656 -1.527343,0 -3.042968,-0.777344 -3.875,-0.777344 -0.535156,0 -0.878906,0.320313 -0.878906,0.746094 0.03516,0.472656 0.519532,0.953125 1.417969,0.953125 0.203125,0 0.460937,-0.02734 0.746094,-0.07422 0.484375,0.679688 0.878906,1.292969 0.878906,2.167969 0,1.644531 -1.960937,2.925781 -3.9375,2.925781 -0.113281,0 -0.21875,-0.0039 -0.332031,-0.01172 -0.175782,-0.40625 -0.773438,-1.089844 -0.773438,-1.871094 0,-1.304688 0.851563,-2.371094 0.851563,-3.667969 0,-0.804687 -0.394531,-1.300781 -0.542969,-1.507813 0.242188,-0.226562 0.507812,-0.503906 0.570312,-0.695312 -0.140624,0.05859 -0.308593,0.07031 -0.554687,0.07031 -0.945313,0 -1.71875,-0.25 -2.472656,-0.25 -0.425781,0 -0.542969,0.132813 -0.542969,0.261719 0,0.04297 0.0078,0.09375 0.01953,0.117188 -0.160156,-0.06641 -0.3125,-0.105469 -0.492187,-0.140625 -0.21875,-0.03906 -0.460938,-0.0625 -0.714844,-0.0625 -0.914062,0 -1.238281,0.386718 -1.238281,0.714844 0,0.28125 0.21875,0.789062 0.464843,1.179687 0.359376,-0.179687 0.785157,-0.304687 0.980469,-0.304687 0.488281,0 0.917969,0.464843 1.148438,1.015624 -0.328125,0.03906 -0.390625,0.05469 -0.71875,0.05469 -0.890625,0 -1.5,-0.320312 -1.625,-0.320312 -0.01172,0 -0.03516,0.0078 -0.03516,0.02734 0,0.125 0.253907,0.457031 0.75,0.636719 0.65625,0.242188 1.640626,0.34375 1.804688,0.371094 0,0.02734 -0.167969,0.339844 -0.351562,0.398437 -0.03906,0.01563 -0.07031,0.01563 -0.117188,0.0078 -0.683594,-0.136719 -0.875,-0.195313 -1.746094,-0.527344 -0.02734,-0.01172 -0.04297,0.0078 -0.04297,0.03516 0,0.34375 0.890624,1.105469 1.6875,1.398438 -0.664063,0.855468 -1.496094,1.726562 -1.890626,3.058594 -0.109374,0.0078 -0.214843,0.01172 -0.328124,0.01172 -1.976563,0 -3.9375,-1.28125 -3.9375,-2.925781 0,-0.875 0.394531,-1.488281 0.878906,-2.167969 0.285156,0.04687 0.542968,0.07422 0.746094,0.07422 0.898437,0 1.382812,-0.480469 1.417968,-0.953125 0,-0.425781 -0.34375,-0.746094 -0.882812,-0.746094 -0.832032,0 -2.34375,0.777344 -3.871094,0.777344 0.152344,0.113281 0.402344,0.234375 0.703125,0.347656 -0.894531,0.808594 -1.492187,1.894532 -1.722656,3.054688 l -2.335938,3.753906 c -0.394531,0.632812 -1.226562,1.867188 -2.476562,2.828125 1.511719,0 2.515625,0.03516 3.796875,-1.996094 l 1.199224,-1.925769 c 0.08594,0.25 0.195313,0.492188 0.324219,0.730469 L 24.792969,58.25 c -0.398438,0.636718 -1.21875,1.859375 -2.476563,2.828125 1.511719,0 2.515625,0.03516 3.796875,-1.996094 l 2.050781,-3.296875 c 0.152344,0.164062 0.316407,0.324219 0.488282,0.476562 l -2.898438,4.65625 c -0.398437,0.636719 -1.214844,1.855469 -2.472656,2.824219 1.511719,0 2.511719,0.03906 3.792969,-1.996093 l 2.824219,-4.539063 c 0.1875,0.117187 0.375,0.234375 0.574218,0.339844 l -3.449218,5.539062 c -0.394532,0.636719 -1.214844,1.851563 -2.472657,2.824219 1.511719,0 2.515625,0.03516 3.792969,-1.996094 l 3.550781,-5.703125 c 0.210938,0.07813 0.421875,0.15625 0.640625,0.226563 l -4.011718,6.445312 c -0.390626,0.628906 -1.226563,1.867188 -2.472657,2.824219 1.511719,0 2.515625,0.03516 3.792969,-1.996094 l 4.273438,-6.867187 c 0.04687,0.0078 0.08984,0.01172 0.128906,0.02344 0.117187,0.371094 0.199218,0.714844 0.199218,1.0625 0,2.15625 -1.410156,4.0625 -3.101562,5.535157 0.109375,0.04687 0.296875,0.0625 0.46875,0.0625 0.351562,0 0.578125,-0.01563 0.734375,-0.04297 -0.390625,0.894531 -1.234375,2.050781 -1.660156,2.648437 -0.554688,-0.101562 -1.359375,-0.179687 -1.890625,-0.179687 -0.550782,0 -0.613282,0.324219 -0.613282,0.613281 0,0.503906 0.234376,0.90625 0.507813,1.128906 0.101563,-0.257812 0.308594,-0.601562 1.332031,-0.601562 0.01563,0 0.05469,0.0039 0.101563,0.0039 -0.296875,0.335938 -1.234375,1.09375 -1.234375,1.703125 0,0.40625 0.441406,1.011719 1.023437,1.011719 -0.03125,-0.132813 -0.02734,-0.25 -0.02734,-0.339844 0,-0.496094 0.433593,-1.074219 0.804687,-1.476562 -0.01172,0.117187 -0.0078,0.105468 -0.0078,0.246093 0,1.167969 0.105469,1.707031 0.84375,1.707031 0.363282,0 0.613282,-0.199218 0.699219,-0.261718 -0.476562,-0.441406 -0.503906,-0.789063 -0.503906,-1.445313 0.0039,-0.171875 0.0039,-0.339843 0.0039,-0.570312 0.0039,-0.148438 0,-0.347657 -0.02344,-0.492188 0.265625,-0.03516 0.371094,-0.03516 0.574218,-0.03516 0,0 1.050782,-0.08203 1.304688,0.464844 0.285156,-0.261719 0.695312,-0.632813 0.695312,-1.039063 0,-0.273437 -0.125,-0.578125 -0.667968,-0.578125 -0.203125,0 -0.847656,0.128907 -1.386719,0.128907 0.144531,-0.324219 0.789063,-1.273438 1.347656,-1.957032 0.08594,0.265625 0.21875,0.554688 0.511719,0.789063 0.03906,-0.441407 0.296875,-1.839844 0.984375,-2.65625 0.07813,0.550781 0.1875,1.117187 0.1875,2.3125 0,2.90625 -0.695313,5.050781 -2.171875,5.460937 0.191406,0.332032 0.597656,0.636719 1.019531,0.636719 0.542969,0 0.835938,-0.613281 1.136719,-1.191406 0.15625,0.425781 0.585938,1.472656 1.019531,1.472656 0.433594,0 0.863281,-1.046875 1.019531,-1.472656 0.300782,0.578125 0.59375,1.191406 1.136719,1.191406 0.417969,0 0.828125,-0.304687 1.019531,-0.636719 -1.476562,-0.410156 -2.171874,-2.554687 -2.171874,-5.460937 0,-1.195313 0.105468,-1.761719 0.1875,-2.3125 0.6875,0.816406 0.945312,2.214843 0.984374,2.65625 0.292969,-0.234375 0.425782,-0.523438 0.511719,-0.789063 0.554688,0.683594 1.203125,1.632813 1.347657,1.957032 -0.539063,0 -1.183594,-0.128907 -1.390626,-0.128907 -0.539062,0 -0.667968,0.304688 -0.667968,0.578125 0,0.40625 0.414062,0.777344 0.699218,1.039063 0.253907,-0.546875 1.304688,-0.464844 1.304688,-0.464844 0.203125,0 0.308594,0 0.574219,0.03516 -0.02344,0.144531 -0.02734,0.34375 -0.02344,0.492188 0,0.230469 0,0.398437 0.0039,0.570312 0,0.65625 -0.02344,1.003907 -0.503907,1.445313 0.08594,0.0625 0.335938,0.261718 0.695313,0.261718 0.742187,0 0.847656,-0.539062 0.847656,-1.707031 0,-0.140625 0.0039,-0.128906 -0.0078,-0.246093 0.371093,0.402343 0.804687,0.980468 0.804687,1.476562 0,0.08984 0.0078,0.207031 -0.03125,0.339844 0.585937,0 1.027344,-0.605469 1.027344,-1.011719 0,-0.609375 -0.933594,-1.367187 -1.234375,-1.703125 0.05078,0 0.08203,-0.0039 0.101562,-0.0039 1.023438,0 1.226563,0.34375 1.332032,0.601562 0.269531,-0.222656 0.507812,-0.625 0.507812,-1.128906 0,-0.289062 -0.0625,-0.613281 -0.617188,-0.613281 -0.527343,0 -1.332031,0.07813 -1.886718,0.179687 -0.425782,-0.597656 -1.269532,-1.753906 -1.660156,-2.648437 0.15625,0.02734 0.382812,0.04297 0.730468,0.04297 0.175782,0 0.367188,-0.01563 0.472656,-0.0625 C 39.878916,63.99219 38.46876,62.08594 38.46876,59.92969 c 0,-0.347656 0.08203,-0.691406 0.195312,-1.0625 0.04297,-0.01172 0.08594,-0.01563 0.128907,-0.02344 l 4.273437,6.867187 c 1.28125,2.03125 2.285156,1.996094 3.796875,1.996094 C 45.617198,66.75 44.78126,65.511718 44.390635,64.882812 L 40.378916,58.4375 c 0.21875,-0.07031 0.429688,-0.148438 0.640625,-0.226563 l 3.546875,5.703125 c 1.28125,2.03125 2.285156,1.996094 3.796875,1.996094 -1.257812,-0.972656 -2.078125,-2.1875 -2.472656,-2.824219 l -3.449219,-5.539062 c 0.199219,-0.105469 0.390625,-0.222657 0.574219,-0.339844 l 2.824219,4.539063 c 1.28125,2.035156 2.28125,1.996093 3.792968,1.996093 -1.257812,-0.96875 -2.074218,-2.1875 -2.472656,-2.824219 l -2.894531,-4.65625 c 0.167969,-0.152343 0.328125,-0.3125 0.480469,-0.476562 l 2.054687,3.296875 c 1.28125,2.03125 2.28125,1.996094 3.796875,1.996094 C 49.339854,60.109375 48.519541,58.886718 48.121104,58.25 l -2.382813,-3.828125 c 0.125,-0.238281 0.234375,-0.480469 0.324219,-0.730469 l 1.199219,1.925781"
     id="path13" />
  <path
     style="fill:#f0cf02;fill-opacity:1;fill-rule:nonzero;stroke:none"
     d="m 61.152344,97.058594 h 1.875 V 122.16797 H 58.648438 V 97.058594 h 2.503906"
     id="path15" />
  <path
     style="fill:#eb1923;fill-opacity:1;fill-rule:nonzero;stroke:none"
     d="m 61.152344,71.824218 h 1.875 V 97.058594 H 58.648438 V 71.824218 h 2.503906"
     id="path17" />
  <path
     style="fill:#211e1e;fill-opacity:1;fill-rule:nonzero;stroke:none"
     d="M 63.027344,46.839844 V 71.949218 H 58.648438 V 46.839844 h 4.378906"
     id="path19" />
  <path
     style="fill:#211e1e;fill-opacity:1;fill-rule:nonzero;stroke:none"
     d="m 72.8125,19.570312 v 0.183594 c 0,0.851562 0.535156,1.117188 1.042969,1.117188 0.632812,0 1.117187,-0.265626 1.117187,-1.011719 0,-1.390625 -2.800781,-1.234375 -2.800781,-3.117188 0,-1.109375 0.785156,-1.699219 1.832031,-1.699219 1.140625,0 1.78125,0.554688 1.726563,1.828126 h -0.828125 c 0.0078,-0.683594 -0.207032,-1.136719 -0.957032,-1.136719 -0.476562,0 -0.960937,0.246093 -0.960937,0.921875 0,1.378906 2.800781,1.179687 2.800781,3.167968 0,1.320313 -0.910156,1.742188 -1.9375,1.742188 -1.839844,0.01953 -1.839844,-1.398438 -1.824218,-1.996094 H 72.8125"
     id="path21" />
  <path
     style="fill:#211e1e;fill-opacity:1;fill-rule:nonzero;stroke:none"
     d="m 77.902344,17.984375 h 0.871094 c 0.328124,0 1.105468,-0.08594 1.105468,-1.070313 0,-0.953125 -0.707031,-1.046875 -0.882812,-1.046875 h -1.09375 z M 77.105469,21.4375 v -6.265625 h 1.851562 c 0.835938,0 1.734375,0.3125 1.734375,1.785156 0,1.425781 -1.105468,1.722656 -1.742187,1.722656 H 77.902344 V 21.4375 h -0.796875"
     id="path23" />
  <path
     style="fill:#211e1e;fill-opacity:1;fill-rule:nonzero;stroke:none"
     d="m 84.894531,19.179687 v -2.113281 c 0,-1.3125 -0.902343,-1.355469 -1.152343,-1.355469 -0.25,0 -1.148438,0.04297 -1.148438,1.355469 v 2.113281 c 0,1.371094 0.398438,1.71875 1.148438,1.71875 0.753906,0 1.152343,-0.347656 1.152343,-1.71875 z m -3.113281,-0.03125 v -2.058593 c 0,-1.25 0.640625,-2.046876 1.960938,-2.046876 1.324218,0 1.964843,0.796876 1.964843,2.046876 v 2.058593 c 0,1.734375 -0.640625,2.417969 -1.964843,2.417969 -1.320313,0 -1.960938,-0.683594 -1.960938,-2.417969"
     id="path25" />
  <path
     style="fill:#211e1e;fill-opacity:1;fill-rule:nonzero;stroke:none"
     d="M 91.410156,15.171875 V 21.4375 h -1.089844 l -2.464843,-5.433594 h -0.01563 V 21.4375 h -0.707032 v -6.265625 h 1.121094 l 2.429688,5.363281 h 0.01563 v -5.363281 h 0.710937"
     id="path27" />
  <path
     style="fill:#211e1e;fill-opacity:1;fill-rule:nonzero;stroke:none"
     d="m 93.464844,19.570312 v 0.183594 c 0,0.851562 0.539062,1.117188 1.046875,1.117188 0.632812,0 1.113281,-0.265626 1.113281,-1.011719 0,-1.390625 -2.796875,-1.234375 -2.796875,-3.117188 0,-1.109375 0.785156,-1.699219 1.832031,-1.699219 1.140625,0 1.777344,0.554688 1.726563,1.828126 h -0.832031 c 0.01172,-0.683594 -0.207032,-1.136719 -0.957032,-1.136719 -0.476562,0 -0.957031,0.246093 -0.957031,0.921875 0,1.378906 2.796875,1.179687 2.796875,3.167968 0,1.320313 -0.90625,1.742188 -1.933594,1.742188 -1.84375,0.01953 -1.84375,-1.398438 -1.824218,-1.996094 h 0.785156"
     id="path29" />
  <path
     style="fill:#211e1e;fill-opacity:1;fill-rule:nonzero;stroke:none"
     d="m 100.74219,19.179687 v -2.113281 c 0,-1.3125 -0.89844,-1.355469 -1.14844,-1.355469 -0.25,0 -1.148438,0.04297 -1.148438,1.355469 v 2.113281 c 0,1.371094 0.394532,1.71875 1.148438,1.71875 0.75,0 1.14844,-0.347656 1.14844,-1.71875 z m -3.109378,-0.03125 v -2.058593 c 0,-1.25 0.636719,-2.046876 1.960938,-2.046876 1.32031,0 1.96094,0.796876 1.96094,2.046876 v 2.058593 c 0,1.734375 -0.64063,2.417969 -1.96094,2.417969 -1.324219,0 -1.960938,-0.683594 -1.960938,-2.417969"
     id="path31" />
  <path
     style="fill:#211e1e;fill-opacity:1;fill-rule:nonzero;stroke:none"
     d="m 103.71484,17.863281 h 1.19141 c 0.57031,0 0.84766,-0.496094 0.84766,-1.042969 0,-0.449218 -0.22657,-0.953125 -0.83594,-0.953125 h -1.20313 z m 0,0.695313 V 21.4375 h -0.79296 v -6.265625 h 2.14843 c 1.10938,0 1.4961,0.78125 1.4961,1.5625 0,0.738281 -0.40625,1.300781 -1.14063,1.429687 v 0.01953 c 0.71875,0.113281 0.97656,0.355468 1.01953,1.613281 0.008,0.269531 0.0937,1.25 0.21485,1.640625 h -0.82813 c -0.22265,-0.433594 -0.17187,-1.25 -0.24219,-2.082032 -0.0625,-0.765624 -0.67187,-0.796874 -0.9414,-0.796874 h -0.9336"
     id="path33" />
  <path
     style="fill:#211e1e;fill-opacity:1;fill-rule:nonzero;stroke:none"
     d="m 107.74219,21.4375 v -6.265625 h 3.21484 v 0.695312 h -2.41797 v 2.011719 h 2.2461 v 0.695312 h -2.2461 v 2.167969 h 2.46875 V 21.4375 h -3.26562"
     id="path35" />
  <path
     style="fill:#211e1e;fill-opacity:1;fill-rule:nonzero;stroke:none"
     d="m 112.875,20.742187 h 0.75391 c 1.10547,0 1.51172,-0.414062 1.51172,-1.871093 v -1.269532 c 0,-1.265625 -0.38672,-1.734375 -1.21875,-1.734375 H 112.875 Z m -0.79297,-5.570312 H 114 c 0.79688,0 1.36719,0.285156 1.67578,0.953125 0.25391,0.53125 0.27735,1.78125 0.27735,1.980468 0,1.335938 -0.1211,2.109376 -0.37891,2.523438 -0.33984,0.539062 -0.96875,0.808594 -2.05859,0.808594 h -1.4336 v -6.265625"
     id="path37" />
  <path
     style="fill:#211e1e;fill-opacity:1;fill-rule:nonzero;stroke:none"
     d="m 120.13672,20.742187 h 1.12109 c 0.84766,0 1.15235,-0.605469 1.15235,-1.066406 0,-0.996094 -0.61328,-1.171875 -1.42969,-1.171875 h -0.84375 z m 0,-2.929687 h 1.15625 c 0.625,-0.01172 0.92578,-0.394532 0.92578,-1 0,-0.523438 -0.29687,-0.945313 -0.96094,-0.945313 h -1.12109 z m -0.79688,3.625 v -6.265625 h 2.03125 c 0.86329,0 1.15625,0.296875 1.39063,0.640625 0.21875,0.339844 0.25391,0.714844 0.25391,0.835937 0,0.78125 -0.26954,1.300781 -1.07422,1.484375 v 0.04297 c 0.88672,0.101563 1.27734,0.640625 1.27734,1.5 0,1.605469 -1.16406,1.761719 -1.875,1.761719 h -2.00391"
     id="path39" />
  <path
     style="fill:#211e1e;fill-opacity:1;fill-rule:nonzero;stroke:none"
     d="m 127.28125,15.171875 h 0.80469 l -1.70313,3.878906 V 21.4375 h -0.79297 v -2.386719 l -1.67968,-3.878906 h 0.89453 l 1.21484,3.03125 1.26172,-3.03125"
     id="path41" />
  <path
     style="fill:#211e1e;fill-opacity:1;fill-rule:nonzero;stroke:none"
     d="m 134.28125,15.171875 v 0.695312 h -1.64453 V 21.4375 h -0.79297 v -5.570313 h -1.64063 v -0.695312 h 4.07813"
     id="path43" />
  <path
     style="fill:#211e1e;fill-opacity:1;fill-rule:nonzero;stroke:none"
     d="m 135.15234,21.4375 v -6.265625 h 0.79688 v 2.707031 h 2.1914 v -2.707031 h 0.79297 V 21.4375 h -0.79297 v -2.863282 h -2.1914 V 21.4375 h -0.79688"
     id="path45" />
  <path
     style="fill:#211e1e;fill-opacity:1;fill-rule:nonzero;stroke:none"
     d="m 140.38281,21.4375 v -6.265625 h 3.21485 v 0.695312 h -2.41797 v 2.011719 h 2.24609 v 0.695312 h -2.24609 v 2.167969 h 2.47265 V 21.4375 h -3.26953"
     id="path47" />
</svg>
